<svg width="50" height="50" viewBox="0 0 50 50" fill="none" xmlns="http://www.w3.org/2000/svg">
<g id="Google__G__Logo 1">
<g id="Group 350">
<path id="Vector" d="M37.5 25.7841C37.5 24.8977 37.4205 24.0455 37.2727 23.2273H25.5V28.0682H32.2273C31.9318 29.625 31.0455 30.9432 29.7159 31.8296V34.9773H33.7727C36.1364 32.7955 37.5 29.5909 37.5 25.7841Z" fill="#4285F4"/>
<path id="Vector_2" d="M25.4989 38.0001C28.8739 38.0001 31.7035 36.8865 33.7717 34.9774L29.7148 31.8297C28.6012 32.5797 27.1808 33.0342 25.4989 33.0342C22.2489 33.0342 19.4876 30.841 18.4989 27.8865H14.3398V31.1137C16.3967 35.1933 20.6126 38.0001 25.4989 38.0001Z" fill="#34A853"/>
<path id="Vector_3" d="M18.5 27.875C18.25 27.125 18.1023 26.3295 18.1023 25.5C18.1023 24.6704 18.25 23.875 18.5 23.125V19.8977H14.3409C13.4886 21.5795 13 23.4773 13 25.5C13 27.5227 13.4886 29.4204 14.3409 31.1023L17.5795 28.5795L18.5 27.875Z" fill="#FBBC05"/>
<path id="Vector_4" d="M25.4989 17.9773C27.3398 17.9773 28.9762 18.6136 30.283 19.8409L33.8626 16.2614C31.6921 14.2386 28.8739 13 25.4989 13C20.6126 13 16.3967 15.8068 14.3398 19.8977L18.4989 23.125C19.4876 20.1705 22.2489 17.9773 25.4989 17.9773Z" fill="#EA4335"/>
</g>
</g>
</svg>
