<svg width="50" height="50" viewBox="0 0 50 50" fill="none" xmlns="http://www.w3.org/2000/svg">
<g id="Google__G__Logo 1">
<g id="Group 350">
<path id="Vector" d="M41 25.3791C41 24.1972 40.8939 23.0609 40.697 21.97H25V28.4245H33.9697C33.5758 30.5003 32.3939 32.2578 30.6212 33.4397V37.6366H36.0303C39.1818 34.7275 41 30.4548 41 25.3791Z" fill="#4285F4"/>
<path id="Vector_2" d="M25.0018 41.6667C29.5018 41.6667 33.2746 40.1819 36.0321 37.6364L30.623 33.4395C29.1382 34.4395 27.2443 35.0455 25.0018 35.0455C20.6685 35.0455 16.9867 32.1213 15.6685 28.1819H10.123V32.4849C12.8655 37.9243 18.4867 41.6667 25.0018 41.6667Z" fill="#34A853"/>
<path id="Vector_3" d="M15.6673 28.1666C15.334 27.1666 15.137 26.106 15.137 25C15.137 23.8939 15.334 22.8333 15.6673 21.8333V17.5303H10.1219C8.9855 19.7727 8.33398 22.303 8.33398 25C8.33398 27.6969 8.9855 30.2272 10.1219 32.4697L14.44 29.106L15.6673 28.1666Z" fill="#FBBC05"/>
<path id="Vector_4" d="M25.0018 14.9696C27.4564 14.9696 29.6382 15.8181 31.3806 17.4545L36.1534 12.6817C33.2594 9.98477 29.5018 8.33325 25.0018 8.33325C18.4867 8.33325 12.8655 12.0757 10.123 17.5302L15.6685 21.8333C16.9867 17.8939 20.6685 14.9696 25.0018 14.9696Z" fill="#EA4335"/>
</g>
</g>
</svg>
