<svg width="140" height="49" viewBox="0 0 140 49" fill="none" xmlns="http://www.w3.org/2000/svg">
<path fill-rule="evenodd" clip-rule="evenodd" d="M23.6266 38.1978H32.9258V22.4805L14.3274 17.1178V10.5H8.16602V38.1978H17.4652V29.4692H23.6266V38.1978Z" fill="#4DBC15"/>
<path fill-rule="evenodd" clip-rule="evenodd" d="M86.5601 22.5947V31.1237C86.5601 31.6086 86.6457 32.0936 86.7598 32.5785C86.9024 33.0634 87.1021 33.4913 87.4158 33.8906C87.7296 34.29 88.129 34.6323 88.5854 34.8605C89.7264 35.3454 91.01 35.3454 92.151 34.8605C92.6074 34.6323 93.0068 34.29 93.3205 33.8906C93.6058 33.4913 93.834 33.0349 93.9766 32.5785C94.1192 32.1221 94.1763 31.6372 94.1763 31.1237V22.6233H97.5993V31.4375C97.5993 33.691 96.8576 36.6861 93.235 38.0268C91.4094 38.7114 89.3841 38.7114 87.5585 38.0268C84.6204 36.9143 83.1656 34.7179 83.1656 31.4375V22.5662L86.5601 22.5947ZM77.0327 24.6485C77.7744 25.3902 78.3734 26.2745 78.7728 27.2443C79.2006 28.2427 79.4288 29.3266 79.4003 30.4391C79.4003 32.607 78.5446 34.6894 77.0042 36.2297C76.2626 36.9714 75.3498 37.5704 74.3799 37.9697C72.2976 38.8255 69.9585 38.8255 67.9047 37.9697C66.9349 37.5704 66.0506 36.9714 65.2804 36.2297C63.7401 34.6894 62.8843 32.607 62.8843 30.4391C62.8843 29.3552 63.084 28.2712 63.5119 27.2443C64.824 24.2207 67.8192 22.2239 71.1281 22.2239C73.353 22.1954 75.4639 23.0797 77.0327 24.6485ZM114.087 22.6233V25.5613L105.9 35.1172H114.543V38.1979H101.536V35.2313L109.665 25.704H101.821V22.6233H114.087ZM130.375 22.6233V25.5613L122.188 35.1172H130.831V38.1979H117.824V35.2313L125.953 25.704H118.109V22.6233H130.375ZM48.7074 17.1179V23.6787C50.533 22.1954 53.357 21.8246 55.639 22.7659C58.0351 23.7643 59.4043 25.9322 59.4043 28.7847V38.1979H55.9527V29.9257C55.9527 27.986 54.9544 25.704 52.1874 25.704C49.1638 25.704 48.7074 28.3568 48.7074 29.9257V38.1979H45.2559V17.1179H48.7074ZM75.4639 32.4073C75.8917 31.1237 75.8917 29.6975 75.4639 28.4138C75.2642 27.8433 74.9504 27.3299 74.5511 26.8735C74.1517 26.4456 73.6668 26.1033 73.0963 25.8751C71.8697 25.3902 70.472 25.3902 69.2454 25.8751C68.7034 26.1033 68.2185 26.4456 67.7906 26.8735C67.3913 27.3299 67.0775 27.8433 66.8778 28.4138C66.45 29.6975 66.45 31.1237 66.8778 32.4073C67.0775 32.9778 67.3913 33.4913 67.7906 33.9477C68.19 34.3756 68.6749 34.7179 69.2454 34.9461C70.472 35.431 71.8697 35.431 73.0963 34.9461C73.6383 34.7179 74.1232 34.3756 74.5511 33.9477C74.9504 33.4913 75.2642 32.9778 75.4639 32.4073Z" fill="black"/>
</svg>
