<svg width="50" height="50" viewBox="0 0 50 50" fill="none" xmlns="http://www.w3.org/2000/svg">
<g id="Frame 269">
<g id="Group">
<path id="Vector" d="M14.9687 34.3945L12.4101 34.0039L11.7461 26.9726C11.5507 23.8476 8.87497 21.4648 5.74997 21.6601C2.62497 21.8554 0.242156 24.5312 0.437469 27.6953L1.14059 35.0586C1.27731 37.2851 2.70309 39.2187 4.77341 40C5.32028 40.2734 5.92575 40.3906 6.55075 40.3711L11.9218 40.625C12.4687 40.6445 12.9179 40.2343 12.9375 39.707C12.957 39.1797 12.5468 38.7109 12.0195 38.6914L6.58981 38.4375C6.55075 38.4375 6.53122 38.4375 6.49216 38.4375C6.17966 38.457 5.88669 38.3984 5.61325 38.2617C5.57419 38.2422 5.53513 38.2226 5.49606 38.2226C4.10934 37.7148 3.15231 36.4258 3.05466 34.9218L2.37106 27.539C2.25387 25.4882 3.81637 23.7304 5.86716 23.5937C7.93747 23.4765 9.67575 25.039 9.81247 27.1093L10.5156 34.4726C10.5156 34.5898 10.5156 34.6875 10.5156 34.8047C10.4961 35.2929 10.8476 35.7031 11.3359 35.7812L14.6757 36.3086C15.0859 36.3672 15.3789 36.7187 15.3789 37.1289V45.2734C15.3789 45.8008 15.8086 46.25 16.3554 46.25C16.8828 46.25 17.332 45.8203 17.332 45.2734V37.1289C17.2929 35.7617 16.3164 34.6093 14.9687 34.3945Z" fill="#313131"/>
<path id="Vector_2" d="M6.43359 19.4336C9.22656 19.4336 11.5117 17.1484 11.5117 14.3555C11.5117 11.5625 9.22656 9.27734 6.43359 9.27734C3.64062 9.27734 1.35547 11.5625 1.35547 14.3555C1.35547 17.1484 3.64062 19.4336 6.43359 19.4336ZM6.43359 11.2109C8.17188 11.2109 9.57812 12.6172 9.57812 14.3555C9.57812 16.0938 8.17188 17.5 6.43359 17.5C4.69531 17.5 3.28906 16.0938 3.28906 14.3555C3.28906 12.6172 4.71484 11.2109 6.43359 11.2109Z" fill="#313131"/>
<path id="Vector_3" d="M43.25 21.6601C40.1445 21.4648 37.4492 23.8476 37.2539 26.9336L36.5898 34.0039L34.0312 34.3945C32.6836 34.6093 31.6875 35.7617 31.6875 37.1289V45.2734C31.6875 45.8008 32.1172 46.25 32.6641 46.25C33.2109 46.25 33.6406 45.8203 33.6406 45.2734V37.1289C33.6406 36.7187 33.9336 36.3867 34.3437 36.3086L37.6836 35.7812C38.1719 35.7031 38.5234 35.2929 38.5039 34.8047C38.5039 34.6875 38.5039 34.5898 38.5039 34.5117L39.207 27.0898C39.3242 25.039 41.082 23.4765 43.1523 23.5937C45.2031 23.7109 46.7656 25.4883 46.6484 27.5L45.9453 34.9218C45.8477 36.3867 44.9102 37.6758 43.5234 38.1836C43.4844 38.2031 43.4453 38.2226 43.4062 38.2226C43.1328 38.3593 42.8398 38.4179 42.5273 38.3984C42.4883 38.3984 42.4492 38.3984 42.4297 38.3984L37 38.6523C36.4727 38.6718 36.043 39.1406 36.082 39.6679C36.1016 40.1953 36.5508 40.625 37.0977 40.5859L42.4687 40.332C43.0742 40.3515 43.6992 40.2343 44.2461 39.9609C46.3164 39.1601 47.7422 37.2265 47.8789 35.039L48.582 27.6172C48.7578 24.5312 46.375 21.8359 43.25 21.6601Z" fill="#313131"/>
<path id="Vector_4" d="M42.5664 19.4336C45.3594 19.4336 47.6445 17.1484 47.6445 14.3555C47.6445 11.5625 45.3594 9.27734 42.5664 9.27734C39.7734 9.27734 37.4883 11.5625 37.4883 14.3555C37.4883 17.1484 39.7539 19.4336 42.5664 19.4336ZM42.5664 11.2109C44.3047 11.2109 45.7109 12.6172 45.7109 14.3555C45.7109 16.0938 44.3047 17.5 42.5664 17.5C40.8281 17.5 39.4219 16.0938 39.4219 14.3555C39.4219 12.6172 40.8281 11.2109 42.5664 11.2109Z" fill="#313131"/>
<path id="Vector_5" d="M34.5195 17.0313V4.78516C34.5195 4.21875 34.0508 3.75 33.4844 3.75H15.5156C14.9492 3.75 14.4805 4.21875 14.4805 4.78516V17.0313C14.4805 17.5977 14.9492 18.0664 15.5156 18.0664H20.5352L23.8164 21.3477C24.0117 21.543 24.2461 21.6406 24.5 21.6406C24.7539 21.6406 24.9883 21.543 25.1836 21.3477L28.4648 18.0664H33.4844C34.0703 18.0664 34.5195 17.5977 34.5195 17.0313ZM32.5859 16.1328H28.0547C27.8008 16.1328 27.5469 16.2305 27.3711 16.4258L24.5 19.2969L21.6289 16.4063C21.4531 16.2305 21.1992 16.1133 20.9453 16.1133H16.4141V5.70313H32.5859V16.1328Z" fill="#313131"/>
</g>
</g>
</svg>
