<svg width="50" height="50" viewBox="0 0 50 50" fill="none" xmlns="http://www.w3.org/2000/svg">
<g id="Frame 269">
<g id="Layer_x0020_1">
<path id="Vector" d="M37.7944 3.97422H32.9148C32.4527 3.97422 32.0782 4.34629 32.0782 4.80842C32.0782 5.27055 32.4527 5.64499 32.9148 5.64499H37.7944C39.2495 5.64499 40.4369 6.89867 40.4369 8.44621V45.009C40.4369 46.5541 39.2495 47.8102 37.7944 47.8102H11.3156C9.85809 47.8102 8.67315 46.5541 8.67315 45.009V8.44621C8.67315 6.89867 9.85809 5.64499 11.3156 5.64499H16.1952C16.6573 5.64499 17.0318 5.27055 17.0318 4.80842C17.0318 4.34629 16.6573 3.97422 16.1952 3.97422H11.3156C8.93383 3.97422 7 5.97678 7 8.44621V45.009C7 47.4784 8.93383 49.481 11.3156 49.481H37.7944C40.1738 49.481 42.11 47.4784 42.11 45.009V8.44621C42.11 5.97678 40.1738 3.97422 37.7944 3.97422ZM17.1906 33.3206C16.7261 33.3206 16.3516 33.6951 16.3516 34.1572C16.3516 34.6193 16.7261 34.9938 17.1906 34.9938H24.5538C25.0159 34.9938 25.3904 34.6193 25.3904 34.1572C25.3904 33.6951 25.0159 33.3206 24.5538 33.3206H17.1906ZM32.7584 28.3439C32.7584 27.8817 32.384 27.5097 31.9218 27.5097H17.1906C16.7261 27.5097 16.3516 27.8817 16.3516 28.3439C16.3516 28.806 16.7261 29.1804 17.1906 29.1804H31.9218C32.384 29.1804 32.7584 28.806 32.7584 28.3439ZM31.9218 21.4024H17.1906C16.7261 21.4024 16.3516 21.7769 16.3516 22.239C16.3516 22.7011 16.7261 23.0756 17.1906 23.0756H31.9218C32.384 23.0756 32.7584 22.7011 32.7584 22.239C32.7584 21.7769 32.384 21.4024 31.9218 21.4024ZM16.3516 16.3261C16.3516 16.7882 16.7261 17.1603 17.1906 17.1603H31.9218C32.384 17.1603 32.7584 16.7882 32.7584 16.3261C32.7584 15.864 32.384 15.4895 31.9218 15.4895H17.1906C16.7261 15.4895 16.3516 15.864 16.3516 16.3261ZM17.0318 8.52442C17.0318 8.06229 16.6573 7.68785 16.1952 7.68785H14.7164C12.9247 7.68785 11.4696 9.14533 11.4696 10.937V41.2195C11.4696 43.0088 12.9247 44.4686 14.7164 44.4686H34.3936C36.1853 44.4686 37.638 43.0088 37.638 41.2195V10.937C37.638 9.14533 36.1853 7.68785 34.3936 7.68785H32.9148C32.4527 7.68785 32.0782 8.06229 32.0782 8.52442C32.0782 8.98655 32.4527 9.36099 32.9148 9.36099H34.3936C35.261 9.36099 35.9672 10.0672 35.9672 10.937V41.2195C35.9672 42.0869 35.261 42.7955 34.3936 42.7955H14.7164C13.849 42.7955 13.1428 42.0869 13.1428 41.2195V10.937C13.1428 10.0672 13.849 9.36099 14.7164 9.36099H16.1952C16.6573 9.36099 17.0318 8.98655 17.0318 8.52442ZM20.1814 5.53835H28.9286V9.57665H20.1814V5.53835ZM24.5917 2.67315C25.3809 2.67315 26.054 3.17082 26.3218 3.86757H22.8593C23.1248 3.17082 23.8002 2.67315 24.5917 2.67315ZM19.3448 11.2451H29.7652C30.2273 11.2451 30.6018 10.8706 30.6018 10.4085V4.70415C30.6018 4.24202 30.2273 3.86757 29.7652 3.86757H28.0447C27.7342 2.23946 26.3075 1 24.5917 1C22.8759 1 21.4493 2.23472 21.1364 3.86757H19.3448C18.8827 3.86757 18.5082 4.24202 18.5082 4.70415V10.4085C18.5082 10.8706 18.8827 11.2451 19.3448 11.2451Z" fill="#313131"/>
</g>
</g>
</svg>
