<svg width="50" height="50" viewBox="0 0 50 50" fill="none" xmlns="http://www.w3.org/2000/svg">
<g id="Frame 269" clip-path="url(#clip0_429_7827)">
<g id="Layer">
<g id="Group">
<path id="Vector" d="M42.8221 42.7819L42.8223 42.7816C43.8111 41.7929 43.8111 40.1839 42.8223 39.1949C42.3434 38.7162 41.7063 38.452 41.0287 38.452C40.3516 38.452 39.7144 38.7162 39.2353 39.1954C38.2467 40.1839 38.2467 41.7929 39.2355 42.7817C40.2246 43.7703 41.8334 43.7703 42.8221 42.7819ZM40.0243 41.9929C39.756 41.7247 39.6083 41.3679 39.6083 40.9883C39.6083 40.6089 39.756 40.2519 40.0243 39.9837C40.2927 39.7155 40.6496 39.5676 41.0291 39.5676C41.4085 39.5676 41.7651 39.7154 42.0336 39.9837C42.5874 40.5377 42.5874 41.4389 42.0334 41.9929C41.4794 42.5469 40.5783 42.5467 40.0243 41.9929Z" fill="#313131"/>
<path id="Vector_2" d="M47.2479 11.1872C47.2485 11.1865 47.2492 11.186 47.2498 11.1854C47.251 11.1842 47.2521 11.1828 47.2533 11.1817L47.4062 11.0287L47.4024 11.0249C49.6756 8.5856 49.6257 4.75226 47.2494 2.3761C46.0729 1.19951 44.5087 0.551514 42.8448 0.551514C41.2552 0.551514 39.7572 1.14426 38.6006 2.22318L38.5969 2.21946L38.4438 2.37243C38.4426 2.37371 38.4413 2.37479 38.4401 2.37607C38.4395 2.37665 38.439 2.37732 38.4384 2.37799L1.84338 38.9728L1.85763 38.9871C1.65307 39.119 1.50488 39.3357 1.46929 39.5956L0.265795 48.3863C0.229156 48.6542 0.319962 48.9237 0.5111 49.1149C0.674295 49.278 0.894628 49.3679 1.12232 49.3679C1.16127 49.3679 1.20046 49.3653 1.23966 49.36L10.03 48.1562C10.2901 48.1207 10.5067 47.9723 10.6386 47.7678L10.6529 47.7821L47.2479 11.1872ZM42.8448 2.28046C44.0468 2.28046 45.1769 2.74857 46.0268 3.59857C47.5724 5.14407 47.7567 7.54357 46.5795 9.29254L40.3323 3.04562C41.0687 2.54796 41.9363 2.28046 42.8448 2.28046ZM38.5969 4.66449L44.9611 11.0287L10.6529 45.337L8.25854 42.9428L35.7981 15.4037L34.1494 13.7553L6.61027 41.2947L4.28846 38.9728L38.5969 4.66449ZM2.13318 47.4926L3.12429 40.2536L9.37193 46.5013L2.13318 47.4926Z" fill="#313131"/>
<path id="Vector_3" d="M14.0815 22.3467L15.659 20.7692L3.03551 8.14559L8.1864 2.99457L10.6287 5.43712L8.85673 7.20887L10.2557 8.60773L12.0277 6.83609L13.4516 8.25993L11.6796 10.0318L13.0786 11.4305L14.8507 9.6589L16.2745 11.083L13.653 13.7039L15.0523 15.1029L17.6735 12.4817L19.4097 14.2178L17.6377 15.99L19.0366 17.3887L20.8086 15.6167L20.8098 15.618L22.3873 14.0406L8.97501 0.628427C8.5394 0.192705 7.83329 0.192705 7.39768 0.628427L0.669342 7.35684C0.233592 7.79248 0.233592 8.4987 0.669342 8.93432L14.0815 22.3467Z" fill="#313131"/>
<path id="Vector_4" d="M49.4148 41.0636C49.3946 41.0434 49.3737 41.0241 49.3525 41.0057L35.3169 26.9703L31.1181 31.1692L32.5142 32.5653L35.1356 29.9439L47.0464 41.8545L41.8953 47.0054L28.5885 33.6987L27.011 35.2764L41.1065 49.3716C41.5421 49.8075 42.2482 49.8075 42.6839 49.3716L49.4126 42.6435C49.4132 42.6426 49.414 42.6421 49.4148 42.6411C49.8505 42.2057 49.8505 41.4992 49.4148 41.0636Z" fill="#313131"/>
</g>
</g>
</g>
<defs>
<clipPath id="clip0_429_7827">
<rect width="50" height="50" fill="white"/>
</clipPath>
</defs>
</svg>
