<svg width="50" height="50" viewBox="0 0 50 50" fill="none" xmlns="http://www.w3.org/2000/svg">
<g id="Frame 269">
<g id="People">
<g id="Icon-2">
<path id="calendar" fill-rule="evenodd" clip-rule="evenodd" d="M15.8705 35.9128C15.5642 35.6066 15.0691 35.6066 14.7628 35.9128L13.75 36.9257L12.7372 35.9128C12.4309 35.6066 11.9358 35.6066 11.6295 35.9128C11.3232 36.2191 11.3232 36.7142 11.6295 37.0205L12.6424 38.0333L11.6295 39.0462C11.3232 39.3525 11.3232 39.8475 11.6295 40.1538C11.7823 40.3066 11.9828 40.3833 12.1833 40.3833C12.3839 40.3833 12.5844 40.3066 12.7372 40.1538L13.75 39.141L14.7628 40.1538C14.9156 40.3066 15.1161 40.3833 15.3167 40.3833C15.5172 40.3833 15.7177 40.3066 15.8705 40.1538C16.1768 39.8475 16.1768 39.3525 15.8705 39.0462L14.8576 38.0333L15.8705 37.0205C16.1768 36.7142 16.1768 36.2191 15.8705 35.9128ZM23.7038 35.9128C23.3975 35.6066 22.9025 35.6066 22.5962 35.9128L21.5833 36.9257L20.5705 35.9128C20.2642 35.6066 19.7691 35.6066 19.4629 35.9128C19.1566 36.2191 19.1566 36.7142 19.4629 37.0205L20.4757 38.0333L19.4629 39.0462C19.1566 39.3525 19.1566 39.8475 19.4629 40.1538C19.6156 40.3066 19.8161 40.3833 20.0167 40.3833C20.2172 40.3833 20.4177 40.3066 20.5705 40.1538L21.5833 39.141L22.5962 40.1538C22.7489 40.3066 22.9495 40.3833 23.15 40.3833C23.3505 40.3833 23.5511 40.3066 23.7038 40.1538C24.0101 39.8475 24.0101 39.3525 23.7038 39.0462L22.691 38.0333L23.7038 37.0205C24.0101 36.7142 24.0101 36.2191 23.7038 35.9128ZM39.3705 28.0795C39.0642 27.7732 38.5691 27.7732 38.2629 28.0795L37.25 29.0924L36.2372 28.0795C35.9309 27.7732 35.4358 27.7732 35.1295 28.0795C34.8232 28.3858 34.8232 28.8809 35.1295 29.1872L36.1424 30.2L35.1295 31.2129C34.8232 31.5191 34.8232 32.0142 35.1295 32.3205C35.2823 32.4732 35.4828 32.55 35.6833 32.55C35.8839 32.55 36.0844 32.4732 36.2372 32.3205L37.25 31.3076L38.2629 32.3205C38.4156 32.4732 38.6161 32.55 38.8167 32.55C39.0172 32.55 39.2177 32.4732 39.3705 32.3205C39.6768 32.0142 39.6768 31.5191 39.3705 31.2129L38.3576 30.2L39.3705 29.1872C39.6768 28.8809 39.6768 28.3858 39.3705 28.0795ZM31.5372 20.2462C31.2309 19.9399 30.7358 19.9399 30.4295 20.2462L29.4167 21.259L28.4038 20.2462C28.0975 19.9399 27.6025 19.9399 27.2962 20.2462C26.9899 20.5525 26.9899 21.0475 27.2962 21.3538L28.309 22.3667L27.2962 23.3795C26.9899 23.6858 26.9899 24.1809 27.2962 24.4872C27.4489 24.6399 27.6495 24.7167 27.85 24.7167C28.0505 24.7167 28.2511 24.6399 28.4038 24.4872L29.4167 23.4743L30.4295 24.4872C30.5823 24.6399 30.7828 24.7167 30.9833 24.7167C31.1839 24.7167 31.3844 24.6399 31.5372 24.4872C31.8434 24.1809 31.8434 23.6858 31.5372 23.3795L30.5243 22.3667L31.5372 21.3538C31.8434 21.0475 31.8434 20.5525 31.5372 20.2462ZM36.4667 23.15H38.0333V21.5833H36.4667V23.15ZM39.6 23.9333C39.6 24.3657 39.2491 24.7167 38.8167 24.7167H35.6833C35.2509 24.7167 34.9 24.3657 34.9 23.9333V20.8C34.9 20.3676 35.2509 20.0167 35.6833 20.0167H38.8167C39.2491 20.0167 39.6 20.3676 39.6 20.8V23.9333ZM28.6333 38.8167H30.2V37.25H28.6333V38.8167ZM31.7667 36.4667V39.6C31.7667 40.0324 31.4157 40.3833 30.9833 40.3833H27.85C27.4176 40.3833 27.0667 40.0324 27.0667 39.6V36.4667C27.0667 36.0343 27.4176 35.6833 27.85 35.6833H30.9833C31.4157 35.6833 31.7667 36.0343 31.7667 36.4667ZM28.6333 30.9833H30.2V29.4167H28.6333V30.9833ZM31.7667 31.7667C31.7667 32.1991 31.4157 32.55 30.9833 32.55H27.85C27.4176 32.55 27.0667 32.1991 27.0667 31.7667V28.6333C27.0667 28.2009 27.4176 27.85 27.85 27.85H30.9833C31.4157 27.85 31.7667 28.2009 31.7667 28.6333V31.7667ZM20.8 30.9833H22.3667V29.4167H20.8V30.9833ZM23.9333 31.7667C23.9333 32.1991 23.5824 32.55 23.15 32.55H20.0167C19.5843 32.55 19.2333 32.1991 19.2333 31.7667V28.6333C19.2333 28.2009 19.5843 27.85 20.0167 27.85H23.15C23.5824 27.85 23.9333 28.2009 23.9333 28.6333V31.7667ZM20.8 23.15H22.3667V21.5833H20.8V23.15ZM23.9333 23.9333C23.9333 24.3657 23.5824 24.7167 23.15 24.7167H20.0167C19.5843 24.7167 19.2333 24.3657 19.2333 23.9333V20.8C19.2333 20.3676 19.5843 20.0167 20.0167 20.0167H23.15C23.5824 20.0167 23.9333 20.3676 23.9333 20.8V23.9333ZM12.9667 30.9833H14.5333V29.4167H12.9667V30.9833ZM16.1 31.7667C16.1 32.1991 15.7491 32.55 15.3167 32.55H12.1833C11.7509 32.55 11.4 32.1991 11.4 31.7667V28.6333C11.4 28.2009 11.7509 27.85 12.1833 27.85H15.3167C15.7491 27.85 16.1 28.2009 16.1 28.6333V31.7667ZM12.9667 23.15H14.5333V21.5833H12.9667V23.15ZM16.1 23.9333C16.1 24.3657 15.7491 24.7167 15.3167 24.7167H12.1833C11.7509 24.7167 11.4 24.3657 11.4 23.9333V20.8C11.4 20.3676 11.7509 20.0167 12.1833 20.0167H15.3167C15.7491 20.0167 16.1 20.3676 16.1 20.8V23.9333ZM36.4667 7.48333C36.4667 7.91495 36.8184 8.26667 37.25 8.26667C37.6816 8.26667 38.0333 7.91495 38.0333 7.48333V4.35C38.0333 3.91838 37.6816 3.56667 37.25 3.56667C36.8184 3.56667 36.4667 3.91838 36.4667 4.35V7.48333ZM34.9 7.48333V4.35C34.9 3.05437 35.9544 2 37.25 2C38.5456 2 39.6 3.05437 39.6 4.35V7.48333C39.6 8.77897 38.5456 9.83333 37.25 9.83333C35.9544 9.83333 34.9 8.77897 34.9 7.48333ZM28.6333 7.48333C28.6333 7.91495 28.9851 8.26667 29.4167 8.26667C29.8483 8.26667 30.2 7.91495 30.2 7.48333V4.35C30.2 3.91838 29.8483 3.56667 29.4167 3.56667C28.9851 3.56667 28.6333 3.91838 28.6333 4.35V7.48333ZM27.0667 7.48333V4.35C27.0667 3.05437 28.121 2 29.4167 2C30.7123 2 31.7667 3.05437 31.7667 4.35V7.48333C31.7667 8.77897 30.7123 9.83333 29.4167 9.83333C28.121 9.83333 27.0667 8.77897 27.0667 7.48333ZM20.8 7.48333C20.8 7.91495 21.1517 8.26667 21.5833 8.26667C22.0149 8.26667 22.3667 7.91495 22.3667 7.48333V4.35C22.3667 3.91838 22.0149 3.56667 21.5833 3.56667C21.1517 3.56667 20.8 3.91838 20.8 4.35V7.48333ZM19.2333 7.48333V4.35C19.2333 3.05437 20.2877 2 21.5833 2C22.879 2 23.9333 3.05437 23.9333 4.35V7.48333C23.9333 8.77897 22.879 9.83333 21.5833 9.83333C20.2877 9.83333 19.2333 8.77897 19.2333 7.48333ZM12.9667 7.48333C12.9667 7.91495 13.3184 8.26667 13.75 8.26667C14.1816 8.26667 14.5333 7.91495 14.5333 7.48333V4.35C14.5333 3.91838 14.1816 3.56667 13.75 3.56667C13.3184 3.56667 12.9667 3.91838 12.9667 4.35V7.48333ZM11.4 7.48333V4.35C11.4 3.05437 12.4544 2 13.75 2C15.0456 2 16.1 3.05437 16.1 4.35V7.48333C16.1 8.77897 15.0456 9.83333 13.75 9.83333C12.4544 9.83333 11.4 8.77897 11.4 7.48333ZM39.8295 44.5295C39.5232 44.8358 39.5232 45.3309 39.8295 45.6372C39.9823 45.7899 40.1828 45.8667 40.3833 45.8667C40.5839 45.8667 40.7844 45.7899 40.9372 45.6372L45.6372 40.9372C45.7844 40.7907 45.8667 40.5909 45.8667 40.3833V15.3167C45.8667 14.8843 45.5157 14.5333 45.0833 14.5333H5.91667C5.48427 14.5333 5.13333 14.8843 5.13333 15.3167V42.7333C5.13333 44.4614 6.53863 45.8667 8.26667 45.8667H37.25C37.6824 45.8667 38.0333 45.5157 38.0333 45.0833V40.3833C38.0333 40.0285 38.3827 39.6 38.8167 39.6H41.95C42.3824 39.6 42.7333 39.2491 42.7333 38.8167C42.7333 38.3843 42.3824 38.0333 41.95 38.0333H38.8167C37.5649 38.0333 36.4667 39.1316 36.4667 40.3833V44.3H8.26667C7.40265 44.3 6.7 43.5974 6.7 42.7333V16.1H44.3V40.059L39.8295 44.5295ZM45.0833 3.56667H41.95C41.5176 3.56667 41.1667 3.9176 41.1667 4.35C41.1667 4.7824 41.5176 5.13333 41.95 5.13333H45.0833C46.2254 5.13333 47.4333 6.34123 47.4333 7.48333V45.0833C47.4333 46.2254 46.2254 47.4333 45.0833 47.4333H5.91667C4.77457 47.4333 3.56667 46.2254 3.56667 45.0833V12.9667H45.0833C45.5157 12.9667 45.8667 12.6157 45.8667 12.1833C45.8667 11.7509 45.5157 11.4 45.0833 11.4H2.78333C2.35093 11.4 2 11.7509 2 12.1833V45.0833C2 47.0965 3.9035 49 5.91667 49H45.0833C47.0965 49 49 47.0965 49 45.0833V7.48333C49 5.47017 47.0965 3.56667 45.0833 3.56667ZM2 9.05V7.48333C2 5.47017 3.9035 3.56667 5.91667 3.56667H9.05C9.4824 3.56667 9.83333 3.9176 9.83333 4.35C9.83333 4.7824 9.4824 5.13333 9.05 5.13333H5.91667C4.77457 5.13333 3.56667 6.34123 3.56667 7.48333V9.05C3.56667 9.4824 3.21573 9.83333 2.78333 9.83333C2.35093 9.83333 2 9.4824 2 9.05Z" fill="#313131"/>
</g>
</g>
</g>
</svg>
