<svg width="50" height="50" viewBox="0 0 50 50" fill="none" xmlns="http://www.w3.org/2000/svg">
<g id="Frame 269">
<g id="Group">
<g id="Group_2">
<path id="Vector" d="M17.014 17.7993C17.014 15.5595 18.7738 13.7996 21.0137 13.7996H22.0536L24.2935 19.7192C24.3735 19.9592 24.6934 20.1992 25.0134 20.1992C25.3334 20.1992 25.6534 19.9592 25.8933 19.7192L28.1332 13.7996H29.0131C31.253 13.7996 33.0129 15.5595 33.0129 17.7993V25.7988H34.6128V17.7993C34.6128 14.6795 32.1329 12.1997 29.0131 12.1997H21.0137C17.8939 12.1997 15.4141 14.6795 15.4141 17.7993V25.7988H17.014V17.7993ZM25.0934 17.1594L23.8135 13.7996H26.3733L25.0934 17.1594Z" fill="#313131"/>
<path id="Vector_2" d="M25.8186 20.999H24.2188V22.5989H25.8186V20.999Z" fill="#313131"/>
<path id="Vector_3" d="M25.8186 24.1986H24.2188V25.7985H25.8186V24.1986Z" fill="#313131"/>
<path id="Vector_4" d="M24.185 11.3993H25.7849C28.0248 11.3993 29.7846 9.63941 29.7846 7.39956V4.99973C29.7846 2.75988 28.0248 1 25.7849 1H24.185C21.9452 1 20.1853 2.75988 20.1853 4.99973V7.39956C20.1853 9.63941 21.9452 11.3993 24.185 11.3993ZM21.7852 4.99973C21.7852 3.63982 22.8251 2.59989 24.185 2.59989H25.7849C27.1448 2.59989 28.1848 3.63982 28.1848 4.99973V7.39956C28.1848 8.75947 27.1448 9.7994 25.7849 9.7994H24.185C22.8251 9.7994 21.7852 8.75947 21.7852 7.39956V4.99973Z" fill="#313131"/>
<path id="Vector_5" d="M20.9912 20.1986H19.3914V25.7982H20.9912V20.1986Z" fill="#313131"/>
<path id="Vector_6" d="M30.5901 20.1986H28.9902V25.7982H30.5901V20.1986Z" fill="#313131"/>
<path id="Vector_7" d="M14.5991 40.9976H6.59962C3.47983 40.9976 1 43.4774 1 46.5972V48.997H2.59989V46.5972C2.59989 44.3573 4.35977 42.5974 6.59962 42.5974H7.63955L9.8794 48.517C9.95939 48.757 10.2794 48.997 10.5993 48.997C10.9193 48.997 11.2393 48.757 11.4793 48.517L13.7191 42.5974H14.5991C16.8389 42.5974 18.5988 44.3573 18.5988 46.5972V48.997H20.1987V46.5972C20.1987 43.4774 17.7189 40.9976 14.5991 40.9976ZM10.6793 45.9572L9.39943 42.5974H11.9593L10.6793 45.9572Z" fill="#313131"/>
<path id="Vector_8" d="M9.83103 40.1976H11.4309C13.6708 40.1976 15.4306 38.4377 15.4306 36.1979V33.7981C15.4306 31.5582 13.6708 29.7983 11.4309 29.7983H9.83103C7.59118 29.7983 5.8313 31.5582 5.8313 33.7981V36.1979C5.8313 38.4377 7.59118 40.1976 9.83103 40.1976ZM7.43119 33.7981C7.43119 32.4382 8.47112 31.3982 9.83103 31.3982H11.4309C12.7908 31.3982 13.8308 32.4382 13.8308 33.7981V36.1979C13.8308 37.5578 12.7908 38.5977 11.4309 38.5977H9.83103C8.47112 38.5977 7.43119 37.5578 7.43119 36.1979V33.7981Z" fill="#313131"/>
<path id="Vector_9" d="M43.3991 40.9976H35.3997C32.2799 40.9976 29.8 43.4774 29.8 46.5972V48.997H31.3999V46.5972C31.3999 44.3573 33.1598 42.5974 35.3997 42.5974H36.4396L38.6794 48.517C38.7594 48.757 39.0794 48.997 39.3994 48.997C39.7194 48.997 40.0394 48.757 40.2793 48.517L42.5192 42.5974H43.3991C45.639 42.5974 47.3989 44.3573 47.3989 46.5972V48.997H48.9987V46.5972C48.9987 43.4774 46.5189 40.9976 43.3991 40.9976ZM39.4794 45.9572L38.1995 42.5974H40.7593L39.4794 45.9572Z" fill="#313131"/>
<path id="Vector_10" d="M34.6033 36.1979C34.6033 38.4377 36.3632 40.1976 38.603 40.1976H40.2029C42.4427 40.1976 44.2026 38.4377 44.2026 36.1979V33.7981C44.2026 31.5582 42.4427 29.7983 40.2029 29.7983H38.603C36.3632 29.7983 34.6033 31.5582 34.6033 33.7981V36.1979ZM36.2032 33.7981C36.2032 32.4382 37.2431 31.3982 38.603 31.3982H40.2029C41.5628 31.3982 42.6027 32.4382 42.6027 33.7981V36.1979C42.6027 37.5578 41.5628 38.5977 40.2029 38.5977H38.603C37.2431 38.5977 36.2032 37.5578 36.2032 36.1979V33.7981Z" fill="#313131"/>
<path id="Vector_11" d="M16.9739 36.9976H32.9728V35.3978H25.7733V28.1982H24.1734V35.3978H16.9739V36.9976Z" fill="#313131"/>
</g>
</g>
</g>
</svg>
