<svg width="50" height="50" viewBox="0 0 50 50" fill="none" xmlns="http://www.w3.org/2000/svg">
<g id="boy-man-user-svgrepo-com 1">
<g id="Group">
<path id="Vector" d="M15.1368 16.7188C15.1368 16.7578 15.1368 16.7773 15.1368 16.7969C15.1368 16.9336 15.1759 17.0703 15.2345 17.1875L15.6642 19.4141C16.5431 23.8867 20.4689 27.1094 25.0196 27.1094C29.5704 27.1094 33.4962 23.8672 34.3751 19.3945L35.7032 12.5977C36.0939 9.74609 35.2345 6.85547 33.3204 4.6875C31.3868 2.53906 28.6524 1.28906 25.7814 1.28906H24.2189C21.3478 1.28906 18.5939 2.53906 16.6993 4.70703C14.8048 6.875 13.9454 9.76563 14.336 12.6758L15.1368 16.7188ZM25.0001 25.2344C21.3478 25.2344 18.2032 22.6367 17.5196 19.0625L17.0509 16.6211C17.1876 15.4492 17.8321 12.7344 19.4337 11.7578C20.3907 11.1719 21.6993 11.2305 23.3204 11.9141C27.3243 13.6328 30.4298 13.6523 32.4415 13.3203C33.4767 14.4141 33.1056 15.9375 33.0079 16.25C32.9884 16.3281 32.9689 16.4844 32.9689 16.582C32.9689 16.6016 32.9689 16.6016 32.9689 16.6211L32.5001 19.082C31.797 22.6367 28.6524 25.2344 25.0001 25.2344ZM18.1251 5.95703C19.6681 4.19922 21.8751 3.18359 24.2189 3.18359H25.7814C28.1056 3.18359 30.3321 4.19922 31.8751 5.95703C33.3595 7.63672 34.0431 9.86328 33.8282 12.0508C33.672 11.875 33.4962 11.7188 33.3009 11.5625C33.086 11.3867 32.7931 11.3281 32.5196 11.3867C30.8009 11.7578 27.9298 11.8359 24.0626 10.1758C21.836 9.23828 19.9415 9.21875 18.4376 10.1367C17.4415 10.7422 16.7579 11.6797 16.2696 12.6563L16.211 12.3633C15.8985 10.0586 16.6017 7.71484 18.1251 5.95703Z" fill="black"/>
<path id="Vector_2" d="M46.3674 47.5586L43.5549 34.3164C43.3205 33.2227 42.5197 32.3047 41.465 31.9336L33.2229 29.0039C32.8713 28.8867 32.5002 28.9649 32.2463 29.2188L25.0002 36.4649L17.7541 29.2188C17.5002 28.9649 17.1096 28.8672 16.7775 29.0039L8.53535 31.9336C7.48066 32.3047 6.67988 33.2227 6.44551 34.3164L3.63301 47.5781C3.57441 47.8516 3.65254 48.1446 3.82832 48.3789C4.0041 48.5938 4.27754 48.7305 4.57051 48.7305H45.4689C45.7619 48.7305 46.0158 48.5938 46.2111 48.3789C46.3674 48.1446 46.426 47.8516 46.3674 47.5586ZM5.72285 46.8164L8.30098 34.7071C8.39863 34.2383 8.73066 33.8672 9.16035 33.711L16.8361 30.9766L24.3166 38.4571C24.6877 38.8281 25.2932 38.8281 25.6643 38.4571L33.1447 30.9766L40.8205 33.711C41.2697 33.8672 41.5822 34.2383 41.6994 34.7071L44.2775 46.8164H5.72285Z" fill="black"/>
</g>
</g>
</svg>
