<svg width="51" height="50" viewBox="0 0 51 50" fill="none" xmlns="http://www.w3.org/2000/svg">
<g id="Frame 277" clip-path="url(#clip0_429_7891)">
<g id="Group">
<path id="Vector" d="M37.0155 9.47266C37.3866 11.3672 39.0468 12.7539 40.9804 12.7539C42.914 12.7539 44.5741 11.3672 44.9452 9.47266L45.4335 6.99219C45.5898 5.78125 45.2382 4.57031 44.4374 3.65234C43.6366 2.73438 42.4843 2.20703 41.2733 2.20703H40.7069C39.496 2.20703 38.3437 2.73438 37.5429 3.65234C36.7421 4.57031 36.371 5.78125 36.5468 7.05078L37.0155 9.47266ZM39.0077 4.94141C39.4374 4.45312 40.0624 4.16016 40.7265 4.16016H41.2929C41.9569 4.16016 42.5624 4.43359 43.0116 4.94141C43.4413 5.42969 43.6366 6.09375 43.5585 6.67969L43.0898 9.10156C42.8944 10.0977 42.0351 10.8008 41.0194 10.8008C40.0038 10.8008 39.1444 10.0781 38.9491 9.10156L38.4804 6.73828C38.3827 6.09375 38.578 5.42969 39.0077 4.94141Z" fill="black"/>
<path id="Vector_2" d="M50.0821 22.3438L48.9688 17.0703C48.8321 16.4258 48.3634 15.8984 47.7579 15.6836L43.9102 14.3164L41.0196 17.207L38.129 14.3164L34.2813 15.6836C33.6759 15.8984 33.2071 16.4258 33.0704 17.0703L31.9571 22.3438C31.8399 22.8711 32.172 23.3789 32.6993 23.4961C33.2267 23.6133 33.7345 23.2812 33.8516 22.7539L34.9454 17.5195L37.6407 16.5625L41.0392 19.9609L44.4376 16.5625L47.0938 17.4805L48.2071 22.7539C48.3048 23.2031 48.7149 23.5156 49.1642 23.5156C49.2227 23.5156 49.3009 23.5156 49.3595 23.4961C49.8477 23.3984 50.1798 22.8711 50.0821 22.3438Z" fill="black"/>
<path id="Vector_3" d="M7.03506 9.47266C7.40616 11.3672 9.06631 12.7539 10.9999 12.7539C12.9335 12.7539 14.5937 11.3672 14.9648 9.47266L15.453 6.99219C15.6093 5.78125 15.2577 4.57031 14.4569 3.65234C13.6562 2.73438 12.5038 2.20703 11.2929 2.20703H10.7265C9.51553 2.20703 8.36319 2.73438 7.56241 3.65234C6.76163 4.57031 6.39053 5.78125 6.56631 7.05078L7.03506 9.47266ZM9.02725 4.94141C9.45694 4.45312 10.0819 4.16016 10.746 4.16016H11.3124C11.9765 4.16016 12.5819 4.43359 13.0312 4.94141C13.4608 5.42969 13.6562 6.09375 13.578 6.67969L13.1093 9.10156C12.914 10.0977 12.0546 10.8008 11.039 10.8008C10.0233 10.8008 9.16397 10.0781 8.96866 9.10156L8.49991 6.73828C8.38272 6.09375 8.59756 5.42969 9.02725 4.94141Z" fill="black"/>
<path id="Vector_4" d="M14.4181 16.5625L17.0743 17.4805L18.1876 22.7539C18.2852 23.2031 18.6954 23.5156 19.1446 23.5156C19.2032 23.5156 19.2813 23.5156 19.3399 23.4961C19.8673 23.3789 20.1993 22.8711 20.0821 22.3438L18.9688 17.0703C18.8321 16.4258 18.3634 15.8984 17.7579 15.6836L13.9102 14.3164L11.0001 17.2266L8.10946 14.3164L4.26181 15.6836C3.65634 15.8984 3.18759 16.4258 3.05087 17.0703L1.93759 22.3438C1.8204 22.8711 2.15243 23.3789 2.67978 23.4961C3.20712 23.6133 3.71493 23.2812 3.83212 22.7539L4.90634 17.5195L7.60165 16.5625L11.0001 19.9609L14.4181 16.5625Z" fill="black"/>
<path id="Vector_5" d="M25.9999 37.0117C27.9335 37.0117 29.5937 35.625 29.9648 33.7305L30.453 31.25C30.6093 30.0391 30.2577 28.8281 29.4569 27.9102C28.6562 26.9922 27.5038 26.4648 26.2929 26.4648H25.7265C24.5155 26.4648 23.3632 26.9922 22.5624 27.9102C21.7616 28.8281 21.3905 30.0391 21.5663 31.3086L22.0351 33.7305C22.4062 35.625 24.0663 37.0117 25.9999 37.0117ZM24.0077 29.1992C24.4374 28.7109 25.0624 28.418 25.7265 28.418H26.2929C26.9569 28.418 27.5624 28.6914 28.0116 29.1992C28.4413 29.6875 28.6366 30.3516 28.5585 30.9375L28.0897 33.3594C27.8944 34.3555 27.0351 35.0586 26.0194 35.0586C25.0038 35.0586 24.1444 34.3359 23.9491 33.3594L23.4804 30.9961C23.3827 30.3516 23.578 29.6875 24.0077 29.1992Z" fill="black"/>
<path id="Vector_6" d="M33.9688 41.3477C33.8321 40.7031 33.3634 40.1758 32.7579 39.9609L28.9102 38.5938L26.0001 41.4844L23.1095 38.5938L19.2618 39.9609C18.6563 40.1758 18.1876 40.7031 18.0509 41.3477L16.9376 46.6211C16.8204 47.1484 17.1524 47.6562 17.6798 47.7734C18.2071 47.8906 18.7149 47.5586 18.8321 47.0312L19.9063 41.7969L22.6017 40.8398L26.0001 44.2383L29.3985 40.8398L32.0548 41.7578L33.1681 47.0312C33.2657 47.4805 33.6759 47.793 34.1251 47.793C34.1837 47.793 34.2618 47.793 34.3204 47.7734C34.8477 47.6562 35.1798 47.1484 35.0626 46.6211L33.9688 41.3477Z" fill="black"/>
<path id="Vector_7" d="M42.6798 26.0742C42.133 26.0156 41.6642 26.4062 41.6252 26.9531C41.2345 30.9961 39.3009 34.6679 36.215 37.3046C35.8048 37.6562 35.7658 38.2617 36.0978 38.6718C36.2931 38.9062 36.5666 39.0039 36.84 39.0039C37.0548 39.0039 37.2892 38.9257 37.465 38.7695C40.9416 35.8007 43.1095 31.6796 43.5587 27.1289C43.5978 26.6015 43.2072 26.1328 42.6798 26.0742Z" fill="black"/>
<path id="Vector_8" d="M10.3948 26.9531C10.3362 26.4258 9.86744 26.0352 9.34009 26.0742C8.81275 26.1328 8.42213 26.6016 8.46119 27.1289C8.91041 31.6797 11.0784 35.8203 14.5549 38.7695C14.7307 38.9258 14.9651 39.0039 15.1799 39.0039C15.4534 39.0039 15.7268 38.8867 15.9221 38.6523C16.2737 38.2422 16.2151 37.6367 15.8049 37.2852C12.719 34.668 10.7854 30.9961 10.3948 26.9531Z" fill="black"/>
<path id="Vector_9" d="M20.8632 10.5664C24.1249 9.41406 27.8749 9.41406 31.1561 10.5664C31.2538 10.6055 31.371 10.625 31.4882 10.625C31.8788 10.625 32.2694 10.3711 32.4061 9.98047C32.5819 9.47266 32.328 8.92578 31.8202 8.75C28.1288 7.44141 23.9296 7.44141 20.2382 8.75C19.7303 8.92578 19.4764 9.49219 19.6522 9.98047C19.7889 10.4883 20.3553 10.7422 20.8632 10.5664Z" fill="black"/>
</g>
</g>
<defs>
<clipPath id="clip0_429_7891">
<rect width="50" height="50" fill="white" transform="translate(0.5)"/>
</clipPath>
</defs>
</svg>
