<svg width="300" height="300" viewBox="0 0 300 300" fill="none" xmlns="http://www.w3.org/2000/svg">
<path d="M150 0L171.588 13.699L196.353 7.34152L212.651 27.0411L238.168 28.6475L247.581 52.4193L271.353 61.8322L272.959 87.3493L292.658 103.647L286.301 128.412L300 150L286.301 171.588L292.658 196.353L272.959 212.651L271.353 238.168L247.581 247.581L238.168 271.353L212.651 272.959L196.353 292.658L171.588 286.301L150 300L128.412 286.301L103.647 292.658L87.3493 272.959L61.8322 271.353L52.4193 247.581L28.6475 238.168L27.0411 212.651L7.34152 196.353L13.699 171.588L0 150L13.699 128.412L7.34152 103.647L27.0411 87.3493L28.6475 61.8322L52.4193 52.4193L61.8322 28.6475L87.3493 27.0411L103.647 7.34152L128.412 13.699L150 0Z" fill="#D6EBFA"/>
</svg>
