<svg width="30" height="16" viewBox="0 0 30 16" fill="none" xmlns="http://www.w3.org/2000/svg">
<path id="Arrow 7" d="M0.292893 7.29289C-0.0976311 7.68342 -0.0976311 8.31658 0.292893 8.70711L6.65685 15.0711C7.04738 15.4616 7.68054 15.4616 8.07107 15.0711C8.46159 14.6805 8.46159 14.0474 8.07107 13.6569L2.41421 8L8.07107 2.34315C8.46159 1.95262 8.46159 1.31946 8.07107 0.928932C7.68054 0.538408 7.04738 0.538408 6.65685 0.928932L0.292893 7.29289ZM29.7071 8.70711C30.0976 8.31658 30.0976 7.68342 29.7071 7.29289L23.3431 0.928932C22.9526 0.538408 22.3195 0.538408 21.9289 0.928932C21.5384 1.31946 21.5384 1.95262 21.9289 2.34315L27.5858 8L21.9289 13.6569C21.5384 14.0474 21.5384 14.6805 21.9289 15.0711C22.3195 15.4616 22.9526 15.4616 23.3431 15.0711L29.7071 8.70711ZM1 9H29V7H1V9Z" fill="white"/>
</svg>
