<svg width="9" height="17" viewBox="0 0 9 17" fill="none" xmlns="http://www.w3.org/2000/svg">
<g id="facebook">
<path id="Vector" d="M5.62406 0.0221577C5.46429 0.0387592 5.0968 0.125093 4.86993 0.198145C3.83778 0.526876 3.05808 1.34041 2.71936 2.4395C2.53722 3.03387 2.51805 3.23975 2.50207 4.78711L2.48609 6.20829H1.24305H0V7.73574V9.26318H1.24624H2.49248V13.1316V17H4.01034H5.5282V13.1316V9.26318H6.78402H8.03665L8.22199 7.75898C8.32425 6.93549 8.40733 6.24814 8.40414 6.23154C8.40414 6.21826 7.75545 6.20829 6.96297 6.20829H5.5218L5.53459 5.01955C5.54737 3.89057 5.55056 3.82416 5.62086 3.60168C5.67838 3.41573 5.72951 3.33604 5.86053 3.1999C6.1609 2.88777 6.49323 2.82136 7.80658 2.82136H8.5V1.46326V0.105171L8.31786 0.085247C7.66917 0.0121956 6.05865 -0.0276508 5.62406 0.0221577Z" fill="#D0D0D0"/>
</g>
</svg>
