<svg width="45" height="45" viewBox="0 0 45 45" fill="none" xmlns="http://www.w3.org/2000/svg">
<g id="phone-receiver-silhouette 1">
<rect width="45" height="45" rx="10" fill="#CE9874"/>
<g id="Group 373">
<g id="Group">
<g id="Group_2">
<path id="Vector" d="M32.8677 17.2635L27.1855 22.9166L32.7275 28.4343C32.8953 28.1473 32.9986 27.8183 32.9986 27.463V17.9466C32.9986 17.7054 32.9486 17.4768 32.8677 17.2635Z" fill="#F9F9F9"/>
</g>
</g>
<g id="Group_3">
<g id="Group_4">
<path id="Vector_2" d="M31.0412 16H14.9544C14.6291 16 14.3268 16.0869 14.0566 16.2272L22.5978 24.7246C22.8456 24.9712 23.276 24.9712 23.5195 24.7246L32.0205 16.2713C31.7313 16.1033 31.3996 16 31.0412 16Z" fill="#F9F9F9"/>
</g>
</g>
<g id="Group_5">
<g id="Group_6">
<path id="Vector_3" d="M13.1641 17.1711C13.0596 17.4091 13 17.6707 13 17.9465V27.463C13 27.8126 13.1005 28.1364 13.2634 28.4203L18.8652 22.8431L13.1641 17.1711Z" fill="#F9F9F9"/>
</g>
</g>
<g id="Group_7">
<g id="Group_8">
<path id="Vector_4" d="M26.2605 23.8379L24.4475 25.646C23.686 26.3951 22.4521 26.4074 21.678 25.646L19.791 23.7644L14.25 29.2732C14.4697 29.3584 14.7066 29.4095 14.9563 29.4095H31.0431C31.2867 29.4095 31.5176 29.3596 31.7329 29.2783L26.2605 23.8379Z" fill="#F9F9F9"/>
</g>
</g>
</g>
</g>
</svg>
