<svg width="19" height="18" viewBox="0 0 19 18" fill="none" xmlns="http://www.w3.org/2000/svg">
<g id="letter 1" clip-path="url(#clip0_964_1860)">
<g id="Group">
<g id="Group_2">
<path id="Vector" d="M17.9742 4.07776L12.834 9.19169L17.8474 14.1831C17.9992 13.9235 18.0926 13.6259 18.0926 13.3045V4.69563C18.0926 4.47745 18.0475 4.2707 17.9742 4.07776Z" fill="#CE9874"/>
</g>
</g>
<g id="Group_3">
<g id="Group_4">
<path id="Vector_2" d="M16.3218 2.93469H1.76914C1.47489 2.93469 1.20142 3.0133 0.957031 3.14025L8.68363 10.8273C8.9078 11.0503 9.29718 11.0503 9.51744 10.8273L17.2077 3.18008C16.9461 3.0281 16.646 2.93469 16.3218 2.93469Z" fill="#CE9874"/>
</g>
</g>
<g id="Group_5">
<g id="Group_6">
<path id="Vector_3" d="M0.14845 3.99414C0.0539595 4.20937 0 4.44604 0 4.69558V13.3045C0 13.6208 0.0909219 13.9136 0.238277 14.1704L5.30584 9.12516L0.14845 3.99414Z" fill="#CE9874"/>
</g>
</g>
<g id="Group_7">
<g id="Group_8">
<path id="Vector_4" d="M11.996 10.0251L10.3558 11.6608C9.66691 12.3384 8.55069 12.3495 7.85042 11.6608L6.14344 9.95862L1.13086 14.942C1.32963 15.0191 1.54395 15.0653 1.76979 15.0653H16.3224C16.5428 15.0653 16.7516 15.0202 16.9464 14.9466L11.996 10.0251Z" fill="#CE9874"/>
</g>
</g>
</g>
<defs>
<clipPath id="clip0_964_1860">
<rect width="18.0925" height="18" fill="white"/>
</clipPath>
</defs>
</svg>
