<svg width="45" height="45" viewBox="0 0 45 45" fill="none" xmlns="http://www.w3.org/2000/svg">
<g id="phone-receiver-silhouette 1">
<rect width="45" height="45" rx="10" fill="#CE9874"/>
<g id="Group">
<path id="Vector" d="M30.26 26.6026C28.9636 25.4938 27.648 24.8222 26.3675 25.9293L25.6029 26.5984C25.0435 27.0841 24.0034 29.3536 19.982 24.7276C15.9615 20.1074 18.354 19.388 18.9143 18.9065L19.6831 18.2365C20.9568 17.1269 20.4761 15.7301 19.5574 14.2922L19.0031 13.4213C18.0802 11.9867 17.0753 11.0446 15.7982 12.1525L15.1081 12.7555C14.5437 13.1667 12.9659 14.5032 12.5832 17.0424C12.1226 20.089 13.5756 23.5778 16.9044 27.4057C20.2291 31.2353 23.4842 33.1589 26.5677 33.1255C29.1303 33.0978 30.6779 31.7227 31.1619 31.2228L31.8545 30.619C33.1282 29.5119 32.3368 28.3847 31.0396 27.2734L30.26 26.6026Z" fill="#F9F9F9"/>
</g>
</g>
</svg>
