<svg width="19" height="18" viewBox="0 0 19 18" fill="none" xmlns="http://www.w3.org/2000/svg">
<g id="phone-receiver-silhouette 1" clip-path="url(#clip0_964_1857)">
<g id="Group">
<path id="Vector" d="M15.5887 12.528C14.4957 11.5979 13.3865 11.0346 12.307 11.9632L11.6623 12.5245C11.1907 12.9319 10.3138 14.8355 6.92333 10.9552C3.53359 7.07986 5.55078 6.47647 6.02312 6.07257L6.67128 5.51061C7.74518 4.57988 7.3399 3.40821 6.56537 2.20213L6.09796 1.47159C5.3199 0.268312 4.47264 -0.521932 3.39591 0.407395L2.81413 0.913151C2.33825 1.25805 1.00806 2.37914 0.685393 4.50894C0.297066 7.06441 1.52206 9.99077 4.3286 13.2016C7.13162 16.4139 9.87603 18.0274 12.4757 17.9993C14.6362 17.9761 15.941 16.8227 16.3491 16.4033L16.933 15.8969C18.0069 14.9683 17.3397 14.0228 16.246 13.0906L15.5887 12.528Z" fill="#CE9874"/>
</g>
</g>
<defs>
<clipPath id="clip0_964_1857">
<rect width="18.0925" height="18" fill="white"/>
</clipPath>
</defs>
</svg>
