<svg width="18" height="18" viewBox="0 0 18 18" fill="none" xmlns="http://www.w3.org/2000/svg">
<g id="letter 1">
<g id="Group">
<g id="Group_2">
<path id="Vector" d="M17.8822 4.07764L12.7682 9.19157L17.756 14.183C17.907 13.9234 18 13.6258 18 13.3044V4.69551C18 4.47733 17.9551 4.27057 17.8822 4.07764Z" fill="#D0D0D0"/>
</g>
</g>
<g id="Group_3">
<g id="Group_4">
<path id="Vector_2" d="M16.2391 2.93481H1.76084C1.4681 2.93481 1.19602 3.01342 0.952881 3.14037L8.63997 10.8274C8.863 11.0504 9.25039 11.0504 9.46952 10.8274L17.1204 3.18021C16.8602 3.02822 16.5617 2.93481 16.2391 2.93481Z" fill="#D0D0D0"/>
</g>
</g>
<g id="Group_5">
<g id="Group_6">
<path id="Vector_3" d="M0.147691 3.99414C0.0536836 4.20937 0 4.44604 0 4.69558V13.3045C0 13.6208 0.090457 13.9136 0.237059 14.1704L5.27871 9.12516L0.147691 3.99414Z" fill="#D0D0D0"/>
</g>
</g>
<g id="Group_7">
<g id="Group_8">
<path id="Vector_4" d="M11.9347 10.025L10.303 11.6607C9.6176 12.3383 8.50708 12.3494 7.81039 11.6607L6.11213 9.9585L1.12518 14.9419C1.32294 15.019 1.53616 15.0652 1.76084 15.0652H16.2391C16.4583 15.0652 16.6661 15.02 16.8599 14.9465L11.9347 10.025Z" fill="#D0D0D0"/>
</g>
</g>
</g>
</svg>
