<svg width="18" height="18" viewBox="0 0 18 18" fill="none" xmlns="http://www.w3.org/2000/svg">
<g id="phone-receiver-silhouette 1" clip-path="url(#clip0_82_858)">
<g id="Group">
<path id="Vector" d="M15.5091 12.5281C14.4218 11.5981 13.3182 11.0347 12.2442 11.9633L11.6029 12.5246C11.1336 12.932 10.2612 14.8356 6.88809 10.9553C3.51568 7.07999 5.52255 6.47659 5.99248 6.07269L6.63732 5.51074C7.70573 4.58 7.30253 3.40834 6.53196 2.20225L6.06694 1.47171C5.29285 0.268434 4.44993 -0.52181 3.37871 0.407517L2.7999 0.913273C2.32645 1.25817 1.00306 2.37926 0.682043 4.50906C0.295702 7.06453 1.51443 9.99089 4.30663 13.2017C7.09531 16.414 9.82569 18.0275 12.4121 17.9994C14.5615 17.9762 15.8596 16.8228 16.2657 16.4035L16.8466 15.897C17.915 14.9684 17.2512 14.0229 16.1631 13.0908L15.5091 12.5281Z" fill="#D0D0D0"/>
</g>
</g>
<defs>
<clipPath id="clip0_82_858">
<rect width="18" height="18" fill="white"/>
</clipPath>
</defs>
</svg>
