<svg width="22" height="22" viewBox="0 0 22 22" fill="none" xmlns="http://www.w3.org/2000/svg">
<g id="Phosphor Icons Brands / LinkedinLogo">
<g id="Group 237">
<path id="Vector (Stroke)" fill-rule="evenodd" clip-rule="evenodd" d="M9.45349 7.27954C10.1015 7.27954 10.6268 7.80486 10.6268 8.45288V17.8396C10.6268 18.4876 10.1015 19.013 9.45349 19.013C8.80547 19.013 8.28015 18.4876 8.28015 17.8396V8.45288C8.28015 7.80486 8.80547 7.27954 9.45349 7.27954Z" fill="#D0D0D0"/>
<path id="Vector (Stroke)_2" fill-rule="evenodd" clip-rule="evenodd" d="M4.75977 7.27954C5.40779 7.27954 5.93311 7.80486 5.93311 8.45288V17.8396C5.93311 18.4876 5.40779 19.013 4.75977 19.013C4.11175 19.013 3.58643 18.4876 3.58643 17.8396V8.45288C3.58643 7.80486 4.11175 7.27954 4.75977 7.27954Z" fill="#D0D0D0"/>
<path id="Vector (Stroke)_3" fill-rule="evenodd" clip-rule="evenodd" d="M13.5602 9.62623C12.7822 9.62623 12.0361 9.93528 11.486 10.4854C10.9359 11.0355 10.6268 11.7816 10.6268 12.5596C10.6268 13.2076 10.1015 13.7329 9.45349 13.7329C8.80547 13.7329 8.28015 13.2076 8.28015 12.5596C8.28015 11.1592 8.83644 9.81623 9.82664 8.82603C10.8168 7.83583 12.1598 7.27954 13.5602 7.27954C14.9605 7.27954 16.3035 7.83583 17.2937 8.82603C18.2839 9.81623 18.8402 11.1592 18.8402 12.5596V17.8396C18.8402 18.4876 18.3149 19.013 17.6669 19.013C17.0189 19.013 16.4935 18.4876 16.4935 17.8396V12.5596C16.4935 11.7816 16.1845 11.0355 15.6344 10.4854C15.0843 9.93528 14.3382 9.62623 13.5602 9.62623Z" fill="#D0D0D0"/>
<path id="Vector" d="M4.76001 5.52003C5.73204 5.52003 6.52003 4.73204 6.52003 3.76001C6.52003 2.78799 5.73204 2 4.76001 2C3.78799 2 3 2.78799 3 3.76001C3 4.73204 3.78799 5.52003 4.76001 5.52003Z" fill="#D0D0D0"/>
</g>
</g>
</svg>
