<svg width="22" height="22" viewBox="0 0 22 22" fill="none" xmlns="http://www.w3.org/2000/svg">
<g id="pinterest-113 1">
<g id="Group">
<path id="Vector" d="M6.97084 19.1802C7.62273 18.6356 8.67798 16.8406 8.91583 15.9259C9.04392 15.4332 9.57192 13.4225 9.57192 13.4225C9.91534 14.0773 10.9185 14.6316 11.9855 14.6316C15.1616 14.6316 17.45 11.7108 17.45 8.08179C17.4498 4.60299 14.6109 2 10.9578 2C6.41363 2 4 5.05063 4 8.37233C4 9.91683 4.82217 11.8397 6.1376 12.4519C6.33708 12.5446 6.44379 12.5038 6.48979 12.311C6.52473 12.1646 6.70226 11.4495 6.78224 11.1168C6.80782 11.0104 6.79522 10.919 6.70913 10.8148C6.27409 10.2872 5.92552 9.31667 5.92552 8.41165C5.92552 6.08908 7.6842 3.84172 10.6804 3.84172C13.2674 3.84172 15.0789 5.6046 15.0789 8.12589C15.0789 10.9746 13.6404 12.948 11.7687 12.948C10.735 12.948 9.96115 12.0932 10.2093 11.0452C10.5061 9.79332 11.0815 8.44258 11.0815 7.53909C11.0815 6.73028 10.6474 6.05567 9.74907 6.05567C8.6923 6.05567 7.84359 7.14891 7.84359 8.61304C7.84359 9.54574 8.15856 10.1764 8.15856 10.1764C8.15856 10.1764 7.11496 14.5889 6.92369 15.4109C6.71199 16.3203 6.79503 17.6015 6.88723 18.4346L6.97084 19.1802Z" fill="#D0D0D0"/>
</g>
</g>
</svg>
