<svg width="25" height="23" viewBox="0 0 25 23" fill="none" xmlns="http://www.w3.org/2000/svg">
<g id="star">
<g id="Group">
<g id="Group_2">
<path id="Vector" d="M8.79136 8.16795C8.79136 8.16795 5.45 8.53804 3.22102 8.78547C3.02011 8.80979 2.84247 8.94408 2.77586 9.14816C2.70924 9.35223 2.77586 9.56477 2.92389 9.69906C4.57977 11.2101 7.06781 13.4729 7.06781 13.4729C7.06569 13.4729 6.38473 16.7645 5.93217 18.9608C5.8941 19.1595 5.96601 19.37 6.13942 19.4958C6.31177 19.6216 6.53383 19.6237 6.7083 19.5254C8.65813 18.4173 11.5786 16.7508 11.5786 16.7508C11.5786 16.7508 14.5002 18.4173 16.4469 19.5265C16.6245 19.6237 16.8466 19.6216 17.0189 19.4958C17.1923 19.37 17.2642 19.1595 17.2251 18.9618C16.7725 16.7645 16.0926 13.4729 16.0926 13.4729C16.0926 13.4729 18.5807 11.2101 20.2366 9.70223C20.3846 9.56371 20.4502 9.35118 20.3846 9.14816C20.319 8.94514 20.1414 8.81085 19.9405 8.78759C17.7115 8.53804 14.3691 8.16795 14.3691 8.16795C14.3691 8.16795 12.9839 5.10363 12.0608 3.06075C11.9741 2.87782 11.7922 2.74988 11.5786 2.74988C11.365 2.74988 11.1821 2.87888 11.0996 3.06075C10.1755 5.10363 8.79136 8.16795 8.79136 8.16795Z" fill="#ddd"/>
</g>
</g>
</g>
</svg>
