<svg width="50" height="50" viewBox="0 0 50 50" fill="none" xmlns="http://www.w3.org/2000/svg">
<g id="Frame 269" clip-path="url(#clip0_429_7808)">
<g id="Group">
<path id="Vector" d="M47.4839 0H2.20641C0.989769 0 0 0.989658 0 2.20605V47.4839C0 48.7003 0.989769 49.6901 2.20641 49.6901H47.4839C48.7003 49.6901 49.69 48.7003 49.69 47.4839V2.20605C49.69 0.989658 48.7003 0 47.4839 0ZM47.4839 47.9452H2.20641C1.9519 47.9452 1.74487 47.7383 1.74487 47.4839V42.0117L18.0645 25.6919L33.9199 41.5476C34.0903 41.7179 34.3135 41.8031 34.5369 41.8031C34.7601 41.8031 34.9834 41.7179 35.1538 41.5476C35.4945 41.2068 35.4945 40.6544 35.1538 40.3137L18.6814 23.8413C18.5111 23.6709 18.2878 23.5857 18.0645 23.5858C17.8412 23.5857 17.618 23.6709 17.4476 23.8413L1.74487 39.5439V2.20605C1.74487 1.95179 1.9519 1.74489 2.20641 1.74489H47.4839C47.7382 1.74489 47.9451 1.95179 47.9451 2.20605V39.1875L32.599 23.8413C32.5351 23.7774 32.4637 23.7256 32.3878 23.6856C32.0587 23.5125 31.6419 23.5645 31.365 23.8413L27.9377 27.2689C27.5971 27.6095 27.5971 28.1619 27.9378 28.5027C28.1081 28.6729 28.3315 28.7581 28.5547 28.7581C28.7779 28.7581 29.0012 28.6729 29.1716 28.5025L31.982 25.6921L47.8374 41.5476C47.8712 41.5813 47.9076 41.6109 47.9451 41.6379V47.4839C47.9451 47.7383 47.7382 47.9452 47.4839 47.9452Z" fill="#313131"/>
<path id="Vector_2" d="M30.0876 15.4153C30.0876 12.7056 27.8831 10.501 25.1734 10.501C22.4637 10.501 20.2593 12.7056 20.2593 15.4153C20.2593 18.125 22.4637 20.3294 25.1734 20.3294C27.8831 20.3294 30.0876 18.125 30.0876 15.4153ZM25.1734 18.5846C23.4259 18.5846 22.0042 17.1628 22.0042 15.4153C22.0042 13.6676 23.4259 12.2459 25.1734 12.2459C26.921 12.2459 28.3427 13.6676 28.3427 15.4153C28.3427 17.1628 26.921 18.5846 25.1734 18.5846Z" fill="#313131"/>
</g>
</g>
<defs>
<clipPath id="clip0_429_7808">
<rect width="50" height="50" fill="white"/>
</clipPath>
</defs>
</svg>
