<svg width="50" height="50" viewBox="0 0 50 50" fill="none" xmlns="http://www.w3.org/2000/svg">
<g id="Frame 269">
<g id="Group 263">
<path id="Vector" d="M25.5 48C37.9264 48 48 37.9264 48 25.5C48 13.0736 37.9264 3 25.5 3C13.0736 3 3 13.0736 3 25.5C3 37.9264 13.0736 48 25.5 48Z" stroke="#313131" stroke-width="1.5" stroke-linecap="round" stroke-linejoin="round"/>
<path id="Vector_2" d="M18.7341 33.9918C19.3631 34.7856 20.1734 35.4169 21.097 35.8325C22.0207 36.2481 23.0305 36.436 24.0418 36.3802H27.2264C28.6341 36.3802 29.9842 35.821 30.9795 34.8256C31.9749 33.8302 32.5341 32.4802 32.5341 31.0725C32.5341 29.6648 31.9749 28.3148 30.9795 27.3194C29.9842 26.324 28.6341 25.7648 27.2264 25.7648H23.7764C22.3688 25.7648 21.0187 25.2056 20.0233 24.2102C19.0279 23.2149 18.4688 21.8648 18.4688 20.4571C18.4688 19.0495 19.0279 17.6994 20.0233 16.704C21.0187 15.7087 22.3688 15.1495 23.7764 15.1495H26.9611C29.3495 15.1495 30.9418 15.6802 32.2687 17.5379M25.3687 12.2302V38.7687" stroke="#313131" stroke-width="1.5" stroke-linecap="round" stroke-linejoin="round"/>
</g>
</g>
</svg>
