<svg width="51" height="50" viewBox="0 0 51 50" fill="none" xmlns="http://www.w3.org/2000/svg">
<g id="Frame 269" clip-path="url(#clip0_429_7866)">
<g id="Group 304">
<g id="Group">
<g id="Group_2">
<path id="Vector" d="M46.1644 23.0367L42.3456 19.2179C42.1789 19.0512 41.9529 18.9576 41.7171 18.9576C41.4813 18.9576 41.2554 19.0512 41.0886 19.2179L39.1779 21.1285L37.5622 19.5128C38.2773 18.4397 38.1624 16.9732 37.2165 16.0272L26.1778 4.98823C25.0667 3.8772 23.5895 3.26538 22.0183 3.26538C20.4471 3.26538 18.9698 3.8772 17.8588 4.98823C17.5117 5.3353 17.5117 5.898 17.8588 6.24507C20.0651 8.45132 20.0651 12.0412 17.8588 14.2474C17.5117 14.5945 17.5117 15.1573 17.8588 15.5042L21.4986 19.144L2.69435 37.9482C2.56965 38.0729 2.48498 38.2318 2.4508 38.4046L1.01682 45.6737C0.959491 45.9645 1.0507 46.2646 1.26037 46.4742C1.42863 46.6424 1.65529 46.7345 1.88879 46.7345C1.94601 46.7345 2.00363 46.7291 2.06086 46.7177L9.3298 45.2837C9.50265 45.2497 9.66164 45.1649 9.78625 45.0402L28.5904 26.2361L29.1246 26.7703C29.2983 26.9439 29.5256 27.0306 29.7531 27.0306C29.9806 27.0306 30.208 26.9439 30.3817 26.7703L31.3232 25.8288L32.9005 27.406L30.9898 29.3167C30.8232 29.4834 30.7295 29.7094 30.7295 29.9452C30.7295 30.1809 30.8232 30.407 30.9898 30.5736L34.8087 34.3925C34.9754 34.5592 35.2014 34.6529 35.4372 34.6529C35.6731 34.6529 35.8989 34.5592 36.0657 34.3925L46.1645 24.2938C46.5114 23.9465 46.5114 23.3837 46.1644 23.0367ZM21.1954 16.3271L19.7069 14.8385C21.8008 12.1754 21.8179 8.40073 19.7579 5.71968C20.423 5.27925 21.2025 5.04282 22.0183 5.04282C23.1147 5.04282 24.1455 5.46978 24.9208 6.24517L28.2272 9.55151C27.9236 9.68745 27.6441 9.87847 27.4018 10.1207L21.1954 16.3271ZM22.7555 20.4009L24.4161 22.0616L6.81662 39.661C6.21164 39.1441 5.55129 38.6905 4.8466 38.3098L22.7555 20.4009ZM3.0174 44.7171L3.32453 43.1598C3.58625 43.2998 3.82775 43.4785 4.04182 43.6924C4.25598 43.9066 4.43488 44.1482 4.57482 44.4098L3.0174 44.7171ZM6.36457 44.0568C6.12433 43.454 5.76594 42.9027 5.29875 42.4356C4.83195 41.9688 4.28088 41.6104 3.67765 41.3701L3.97541 39.8609C5.62697 40.7459 6.98859 42.1077 7.87375 43.7592L6.36457 44.0568ZM9.42463 42.8879C9.04387 42.1831 8.59035 41.5228 8.07336 40.9178L25.6729 23.3184L27.3335 24.9791L9.42463 42.8879ZM29.7532 24.8849L22.4524 17.584L28.6589 11.3776C28.845 11.1913 29.0926 11.0888 29.3561 11.0888C29.6193 11.0888 29.8668 11.1914 30.0531 11.3774L35.9598 17.284C36.3442 17.6686 36.3442 18.2941 35.9598 18.6786L29.7532 24.8849ZM32.5801 24.5717L36.3438 20.8082L37.921 22.3854L37.4102 22.8963L34.1574 26.1491L32.5801 24.5717ZM35.4371 32.507L32.8751 29.945L34.7844 28.0358C34.7849 28.0353 34.7855 28.0348 34.786 28.0343L38.8972 23.923L41.717 21.1032L44.2788 23.6652L35.4371 32.507Z" fill="black"/>
</g>
</g>
<g id="Group_3">
<g id="Group_4">
<path id="Vector_2" d="M47.7552 34.429L45.8278 32.5018C45.4806 32.1547 44.9179 32.1547 44.5708 32.5018C44.2238 32.8488 44.2238 33.4116 44.5708 33.7586L46.4981 35.6858C46.6717 35.8593 46.8993 35.9462 47.1266 35.9462C47.354 35.9462 47.5815 35.8595 47.7551 35.6858C48.1023 35.3388 48.1023 34.776 47.7552 34.429Z" fill="black"/>
</g>
</g>
<g id="Group_5">
<g id="Group_6">
<path id="Vector_3" d="M39.92 34.428C39.4291 34.428 39.0312 34.8259 39.0312 35.3167V38.0422C39.0312 38.5331 39.429 38.931 39.92 38.931C40.4109 38.931 40.8088 38.5331 40.8088 38.0422V35.3167C40.8088 34.8259 40.4109 34.428 39.92 34.428Z" fill="black"/>
</g>
</g>
<g id="Group_7">
<g id="Group_8">
<path id="Vector_4" d="M50.1113 26.9625H47.3858C46.8949 26.9625 46.4971 27.3605 46.4971 27.8513C46.4971 28.3421 46.8949 28.7401 47.3858 28.7401H50.1113C50.6022 28.7401 51.0001 28.3421 51.0001 27.8513C51.0001 27.3605 50.6023 26.9625 50.1113 26.9625Z" fill="black"/>
</g>
</g>
</g>
</g>
<defs>
<clipPath id="clip0_429_7866">
<rect width="50" height="50" fill="white" transform="translate(0.5)"/>
</clipPath>
</defs>
</svg>
